<?xml version="1.0" encoding="utf-8"?><svg xmlns="http://www.w3.org/2000/svg" xmlns:xlink="http://www.w3.org/1999/xlink"><symbol id="Navigator-logo" viewBox="0 0 320 43" xmlns="http://www.w3.org/2000/svg"><defs><style>.aacls-1{fill:#ffcc05;fill-rule:evenodd}</style></defs><title>Navigator-logo</title><path class="aacls-1" d="M464.46 571.2v-5.95a5.49 5.49 0 0 0 2.17-1 5.56 5.56 0 0 0 2.17-2.53 8.41 8.41 0 0 0 .79-3.29 6.6 6.6 0 0 0-1.72-4.57 6.17 6.17 0 0 0-3.41-1.73v-5.66h2.64a16.22 16.22 0 0 1 8.08 1.88 11.59 11.59 0 0 1 5.11 4.73 13.11 13.11 0 0 1 1.72 6.29 14.34 14.34 0 0 1-.79 4.41 10.25 10.25 0 0 1-2.63 3.78 12.21 12.21 0 0 1-4 2.67 14.88 14.88 0 0 1-5.59 1h-4.5zm0-24.72v5.66a9 9 0 0 0-1.71-.15h-3.43v13.39h3.89a6.32 6.32 0 0 0 1.24-.12v5.95h-5.14v16.38h-11.15v-41.1h16.3zm-43.4 42.41v-9.34l3.82-3.94 10.85 2.39-5.27-9.92 5.58-9.77-10.87 1.91-4.12-4.53v-9.6c.5 0 1-.06 1.48-.06a27.16 27.16 0 0 1 8.39 1.74 19.93 19.93 0 0 1 6.67 4.4 17.24 17.24 0 0 1 4.51 6.46 23.32 23.32 0 0 1 1.87 8.19v.94a21.39 21.39 0 0 1-10.1 18.43 20.16 20.16 0 0 1-10.26 2.81c-.88 0-1.73 0-2.56-.11zm0-42.83v9.6l-3.35-3.66-1.55 11-10.09 4.57 9.93 5 1.09 11 3.95-4.09v9.34a23.66 23.66 0 0 1-7.37-1.79 19.28 19.28 0 0 1-7-5.19 22.27 22.27 0 0 1-4.2-6.78q-.35-.9-.61-1.78v-11.47a20.25 20.25 0 0 1 2.32-5.58 18.8 18.8 0 0 1 8.07-7.56 22.08 22.08 0 0 1 8.77-2.62zm-19.16 6.39h.77v-6h-.77v6zm0-6v6h-10.42v35.13H380.3v-35.13h-7.53v-6h29.11zm0 15.33a25.69 25.69 0 0 0-.77 6.39 18.41 18.41 0 0 0 .77 5.15v-11.51zm-29.11 25.77h3.79l-3.25-9-.54-1.47v10.45zm0-41.1v6H369v-6h3.8zm0 30.65l-11.25-30.65h-8.7v9.92l4.82 13.85h-4.82v5.36h6.83l4.35 12h8.77v-10.45zm-20-30.65v9.92L348 570.24h4.81v5.36h-6.36l-3.89 12h-2.48v-11.35l7.14-20.8 3.11-9h2.48zm-12.73 6H344v-6h-3.88v6zm-74.68 14.34c2.63-.94 4.5-2.06 5.59-3.47a8.36 8.36 0 0 0 1.71-5.51v-1.42A10 10 0 0 0 268 549c-2.63-1.74-6.37-2.52-11.49-2.52h-.7v5.61a5.8 5.8 0 0 1 2.25.85 4.35 4.35 0 0 1 2 2.36 6.63 6.63 0 0 1 .78 3 5.82 5.82 0 0 1-1.39 3.94 4.61 4.61 0 0 1-3.65 1.57v5.71a7.12 7.12 0 0 1 2.09.74 7 7 0 0 1 3.72 6 5.72 5.72 0 0 1-1.71 4.09 6.15 6.15 0 0 1-4.11 1.69v5.56H260a21.77 21.77 0 0 0 6.68-1 11 11 0 0 0 5.27-3 8.15 8.15 0 0 0 2.33-5.52 13 13 0 0 0-1.71-6.45c-1.09-1.89-3.42-3.61-7.14-4.87zm74.68-20.31v6h-11.14v35.13h-11.19v-41.1h22.36zm0 29.77l-3.89 11.33h3.89v-11.33zm-50.31-4.74l-1.09 3.94v-29h-11.14v41.1h12.26l10.09-27.39 1.09-3.79-.16 31.19h11.33v-41.1h-12.41zm-33.92-25h-16.2v41.1h16.23V582h-5.05v-12.69h3a10.82 10.82 0 0 1 2.09.2v-5.71h-5V552h3.88a6.67 6.67 0 0 1 1.17.1v-5.61zm-41.12 29.09v-5.36h4.89l-4.82-13.85-.07.22v-10.13h8.77l11.8 32.12 3.26 9H226l-4.5-12h-6.76zm0-29.12v10.13l-4.89 13.63h4.89v5.36h-6.29l-4 12h-6.21l11-32.13 3.11-9h2.4zm-29.42 17.32h-12.1v-17.32H162v41.1h11.19v-18.27h12.11v18.27h11.33v-41.1h-11.34v17.32z" transform="translate(-162 -546)"/></symbol><symbol id="arrow-down" viewBox="0 0 24 12" xmlns="http://www.w3.org/2000/svg"><defs><style>.abcls-1{fill:#fbca0b;fill-rule:evenodd}</style></defs><title>arrow-down</title><path class="abcls-1" d="M23 0H0v1h1v1h1v1h1v1h1v1h1v1h1v1h1v1h1v1h1v1h1v1h1v1h2v-1h1v-1h1V9h1V8h1V7h1V6h1V5h1V4h1V3h1V2h1V1h1V0h-1z"/></symbol><symbol id="arrow-down-small" viewBox="0 0 15 8" xmlns="http://www.w3.org/2000/svg"><defs><style>.accls-1{fill:#ffcc05}</style></defs><title>arrow-down-small</title><path class="accls-1" d="M0 0h15v1H0zM1 1h13v1H1zM2 2h11v1H2zM3 3h9v1H3zM4 4h7v1H4zM5 5h5v1H5zM6 6h3v1H6zM7 7h1v1H7z"/></symbol><symbol id="arrow-left" viewBox="0 0 12 24" xmlns="http://www.w3.org/2000/svg"><defs><style>.adcls-1{fill:#fbca0b;fill-rule:evenodd}</style></defs><title>arrow-left</title><path class="adcls-1" d="M12 23V0h-1v1h-1v1H9v1H8v1H7v1H6v1H5v1H4v1H3v1H2v1H1v1H0v2h1v1h1v1h1v1h1v1h1v1h1v1h1v1h1v1h1v1h1v1h1v1h1v-1z"/></symbol><symbol id="arrow-right" viewBox="0 0 12 24" xmlns="http://www.w3.org/2000/svg"><defs><style>.aecls-1{fill:#fbca0b;fill-rule:evenodd}</style></defs><title>arrow-right</title><path class="aecls-1" d="M0 23V0h1v1h1v1h1v1h1v1h1v1h1v1h1v1h1v1h1v1h1v1h1v1h1v2h-1v1h-1v1H9v1H8v1H7v1H6v1H5v1H4v1H3v1H2v1H1v1H0v-1z"/></symbol><symbol id="arrow-up" viewBox="0 0 24 12" xmlns="http://www.w3.org/2000/svg"><defs><style>.afcls-1{fill:#263238;fill-rule:evenodd}</style></defs><title>arrow-up</title><path class="afcls-1" d="M23 11v-1h-1V9h-1V8h-1V7h-1V6h-1V5h-1V4h-1V3h-1V2h-1V1h-1V0h-2v1h-1v1H9v1H8v1H7v1H6v1H5v1H4v1H3v1H2v1H1v1H0v1h24v-1h-1z"/></symbol><symbol id="battery" viewBox="0 0 48 38" xmlns="http://www.w3.org/2000/svg"><defs><style>.agcls-1{fill:#fbca0b;fill-rule:evenodd}</style></defs><title>battery</title><path class="agcls-1" d="M8 557h9v3H8v-3zm23 0h2.93v-3H37v3h3v3h-3v3h-3v-3h-3v-3zm2-20l-1 5H16l-1-5H8l-1 5H0v33h48v-33h-7l-1-5h-7z" transform="translate(0 -537)"/></symbol><symbol id="brakers" viewBox="0 0 48 44" xmlns="http://www.w3.org/2000/svg"><defs><style>.ahcls-1{fill:#fbca0b;fill-rule:evenodd}</style></defs><title>brakers</title><path class="ahcls-1" d="M14 556.07A12 12 0 1 0 25.92 544 12 12 0 0 0 14 556.07zm8 0a4 4 0 1 1 4 4 4 4 0 0 1-4-4zm-6 0a2 2 0 1 1 2 2 2 2 0 0 1-2-2zm7.46 9.7a2 2 0 1 1 2.45-1.4 2 2 0 0 1-2.45 1.4zm10.54-3.4a2 2 0 1 1-.3-2.81 2 2 0 0 1 .3 2.81zm-.07-12.82a2 2 0 1 1-2.82-.26 2 2 0 0 1 2.82.26zm-10.55-3.28a2 2 0 1 1-1.38 2.47 2 2 0 0 1 1.38-2.47zM10.6 535.18l.88-.64 6.65 9.14-.88.64A14.44 14.44 0 0 0 12.62 562l.46 1-10.27 4.74-.46-1a25.75 25.75 0 0 1 8.25-31.57zM8 568.3l2.58-1.19A19.15 19.15 0 1 0 18 538.66l-1.67-2.31A21.8 21.8 0 0 1 45 544.88 22.07 22.07 0 0 1 37.18 575 21.79 21.79 0 0 1 8 568.3z" transform="translate(0 -534)"/></symbol><symbol id="check" viewBox="0 0 15 10" xmlns="http://www.w3.org/2000/svg"><defs><style>.aicls-1{fill:#fff}</style></defs><title>check</title><path class="aicls-1" transform="rotate(-90 -118.5 447.5)" d="M319 571h1v1h-1z"/><path class="aicls-1" transform="rotate(-90 -117.5 446.5)" d="M320 570h1v1h-1z"/><path class="aicls-1" transform="rotate(-90 -116.5 445.5)" d="M321 569h1v1h-1z"/><path class="aicls-1" transform="rotate(-90 -115.5 444.5)" d="M322 568h1v1h-1z"/><path class="aicls-1" transform="rotate(-90 -114.5 443.5)" d="M323 567h1v1h-1z"/><path class="aicls-1" transform="rotate(-90 -113.5 442.5)" d="M324 566h1v1h-1z"/><path class="aicls-1" transform="rotate(-90 -112.5 441.5)" d="M325 565h1v1h-1z"/><path class="aicls-1" transform="rotate(-90 -111.5 440.5)" d="M326 564h1v1h-1z"/><path class="aicls-1" transform="rotate(-90 -110.5 439.5)" d="M327 563h1v1h-1z"/><path class="aicls-1" transform="rotate(-90 -109.5 438.5)" d="M328 562h1v1h-1z"/><path class="aicls-1" transform="rotate(90 438.5 129.5)" d="M314 567h1v1h-1z"/><path class="aicls-1" transform="rotate(90 439.5 130.5)" d="M315 568h1v1h-1z"/><path class="aicls-1" transform="rotate(90 440.5 131.5)" d="M316 569h1v1h-1z"/><path class="aicls-1" transform="rotate(90 441.5 132.5)" d="M317 570h1v1h-1z"/><path class="aicls-1" transform="rotate(90 442.5 133.5)" d="M318 571h1v1h-1z"/></symbol><symbol id="close" viewBox="0 0 24 24" xmlns="http://www.w3.org/2000/svg"><defs><style>.ajcls-1{fill:#263238}</style></defs><title>close</title><path class="ajcls-1" d="M0 0h1v1H0zM1 1h1v1H1zM2 2h1v1H2zM3 3h1v1H3zM4 4h1v1H4zM5 5h1v1H5zM6 6h1v1H6zM7 7h1v1H7zM8 8h1v1H8zM9 9h1v1H9zM10 10h1v1h-1zM11 11h1v1h-1zM12 12h1v1h-1zM13 13h1v1h-1zM14 14h1v1h-1zM15 15h1v1h-1zM16 16h1v1h-1zM17 17h1v1h-1zM18 18h1v1h-1zM19 19h1v1h-1zM20 20h1v1h-1zM21 21h1v1h-1zM22 22h1v1h-1zM23 23h1v1h-1z"/><path class="ajcls-1" transform="rotate(180 98 266.5)" d="M172 532h1v1h-1z"/><path class="ajcls-1" transform="rotate(180 97 267.5)" d="M171 533h1v1h-1z"/><path class="ajcls-1" transform="rotate(180 96 268.5)" d="M170 534h1v1h-1z"/><path class="ajcls-1" transform="rotate(180 95 269.5)" d="M169 535h1v1h-1z"/><path class="ajcls-1" transform="rotate(180 94 270.5)" d="M168 536h1v1h-1z"/><path class="ajcls-1" transform="rotate(180 93 271.5)" d="M167 537h1v1h-1z"/><path class="ajcls-1" transform="rotate(180 92 272.5)" d="M166 538h1v1h-1z"/><path class="ajcls-1" transform="rotate(180 91 273.5)" d="M165 539h1v1h-1z"/><path class="ajcls-1" transform="rotate(180 90 274.5)" d="M164 540h1v1h-1z"/><path class="ajcls-1" transform="rotate(180 89 275.5)" d="M163 541h1v1h-1z"/><path class="ajcls-1" transform="rotate(180 88 276.5)" d="M162 542h1v1h-1z"/><path class="ajcls-1" transform="rotate(180 87 277.5)" d="M161 543h1v1h-1z"/><path class="ajcls-1" transform="rotate(180 86 278.5)" d="M160 544h1v1h-1z"/><path class="ajcls-1" transform="rotate(180 85 279.5)" d="M159 545h1v1h-1z"/><path class="ajcls-1" transform="rotate(180 84 280.5)" d="M158 546h1v1h-1z"/><path class="ajcls-1" transform="rotate(180 83 281.5)" d="M157 547h1v1h-1z"/><path class="ajcls-1" transform="rotate(180 82 282.5)" d="M156 548h1v1h-1z"/><path class="ajcls-1" transform="rotate(180 81 283.5)" d="M155 549h1v1h-1z"/><path class="ajcls-1" transform="rotate(180 80 284.5)" d="M154 550h1v1h-1z"/><path class="ajcls-1" transform="rotate(180 79 285.5)" d="M153 551h1v1h-1z"/><path class="ajcls-1" transform="rotate(180 78 286.5)" d="M152 552h1v1h-1z"/><path class="ajcls-1" transform="rotate(180 77 287.5)" d="M151 553h1v1h-1z"/><path class="ajcls-1" transform="rotate(180 76 288.5)" d="M150 554h1v1h-1z"/><path class="ajcls-1" transform="rotate(180 75 289.5)" d="M149 555h1v1h-1z"/></symbol><symbol id="conditioner" viewBox="0 0 48 48" xmlns="http://www.w3.org/2000/svg"><defs><style>.akcls-1{fill:#fbca0b;fill-rule:evenodd}</style></defs><title>conditioner</title><path class="akcls-1" d="M24 532a24 24 0 1 1-24 24 24 24 0 0 1 24-24zm0 4a20 20 0 1 0 20 20 20 20 0 0 0-20-20zm-1.61 32.11V572h3.29v-3.89l3 1.72v-3.66l-3-1.77v-5.61l5 2.81v3.46l3.23 1.83v-3.44l3.44 1.95 1.65-2.8-3.44-1.95 3-1.72-3.23-1.83-3.08 1.69-5-2.81 4.89-2.76 3.08 1.69 3.23-1.83-3-1.72 3.44-1.95-1.65-2.79-3.44 1.95v-3.44L30.61 547v3.46l-4.89 2.76v-5.28l3-1.77v-3.67l-3 1.72V540h-3.33v4.22l-3-1.72v3.66l3 1.77v5.28l-4.67-2.64v-3.46l-3.23-1.83v3.44l-3.73-2.11-1.69 2.79 3.73 2.11-3 1.72 3.2 1.82 3.08-1.69 4.67 2.64-4.75 2.68-3.07-1.68-3.23 1.83 3 1.72-3.7 2.09 1.65 2.79 3.73-2.11v3.43l3.23-1.83v-3.46l4.74-2.68v5.61l-3 1.77v3.66z" transform="translate(0 -532)"/></symbol><symbol id="cooling" viewBox="0 0 48 48" xmlns="http://www.w3.org/2000/svg"><defs><style>.alcls-1,.alcls-2{fill:#fbca0b}.alcls-1{fill-rule:evenodd}</style></defs><title>cooling-system</title><path class="alcls-1" d="M16.22 603.67a6.62 6.62 0 0 0 1.78 2.91 6.88 6.88 0 0 1-2.23.33c-2.58 0-5.26-1.67-7.93-1.67S2.67 607 0 607v-3.33c2.67 0 5.26-1.67 7.84-1.67 2.76 0 5.35 1.67 7.93 1.67h.45zM27 600v-6h6v-3h-6v-5h6v-3h-6v-5h6v-3h-6v-6c0-4-6-4-6 0v31h6zm21 14c-2.71 0-5.41-1.67-8.12-1.67S34.65 614 31.94 614s-5.23-1.67-7.94-1.67-5.41 1.67-8.12 1.67c-2.53 0-5.23-1.67-7.94-1.67S2.71 614 0 614v-3.33c2.71 0 5.23-1.67 7.94-1.67s5.41 1.67 7.94 1.67c2.71 0 5.41-1.67 8.12-1.67s5.23 1.67 7.94 1.67 5.23-1.67 7.94-1.67 5.41 1.67 8.12 1.67V614zm-18-7.67a6.23 6.23 0 0 0 1.51-2.83 5.73 5.73 0 0 0 1.67.17c2.43 0 4.86-1.67 7.37-1.67s5 1.67 7.45 1.67v3.25c-2.43 0-4.94-1.67-7.45-1.67s-4.94 1.67-7.37 1.67a10.23 10.23 0 0 1-3.18-.59z" transform="translate(0 -566)"/><circle class="alcls-2" cx="24" cy="36" r="5"/></symbol><symbol id="discounts" viewBox="0 0 26 55.89" xmlns="http://www.w3.org/2000/svg"><defs><style>.amcls-1{fill:#fbca0b;fill-rule:evenodd}.amcls-2{fill:#263238}</style></defs><title>discounts</title><path class="amcls-1" d="M13.13 549a14.77 14.77 0 0 0-3.81 10 5.59 5.59 0 0 1 2.68-1 13 13 0 0 1 3.14-7.43c3.45-3.84 8.35-1.51 7.34 3.48a13.46 13.46 0 0 1-3.07 5.86c-1.42 1.61-3.09 2.79-4.53 2.92a2.42 2.42 0 0 1-2.14-.89A2.17 2.17 0 0 0 11 564a5 5 0 0 0 3.42 1.48 5.22 5.22 0 0 0 1.06-.07 2.84 2.84 0 1 1-.11-3.27 5.3 5.3 0 0 0 1.6-1.21c-2.47-2.89-6.65-2-9 1.09l-7.05 9.17A5.1 5.1 0 0 0 0 574v27a.91.91 0 0 0 1 1h24a.94.94 0 0 0 1-1v-27a4.89 4.89 0 0 0-.88-2.8L19 563.58a17.59 17.59 0 0 0 2.51-2 15.84 15.84 0 0 0 3.68-7.07c1.55-7.63-6.76-11.41-12.06-5.51z" transform="translate(0 -546.11)"/><path class="amcls-2" d="M8 589v-2H6v-3h2v-7.54l.91-.17c.35-.06.73-.11 1.12-.14l1.19-.09h1.14a15.72 15.72 0 0 1 3.1.28 7.49 7.49 0 0 1 2.41.9 4.31 4.31 0 0 1 1.57 1.61 5 5 0 0 1 .55 2.43 4.5 4.5 0 0 1-1.95 4 10.39 10.39 0 0 1-5.81 1.72h-.3v2h6v3h-6v2H8v-2H6v-3h2zm4.54-10a5.32 5.32 0 0 0-.54 0v5h.23c1.83 0 3.77 0 3.77-2.65 0-2.35-2.06-2.35-3.46-2.35z" transform="translate(0 -546.11)"/></symbol><symbol id="discounts-2" viewBox="0 0 26.01 55.9" xmlns="http://www.w3.org/2000/svg"><defs><style>.ancls-1{fill:#fbca0b}</style></defs><title>discounts-2</title><path class="ancls-1" d="M12.54 32.89H12v5h.23c1.83 0 3.77 0 3.77-2.65 0-2.35-2.06-2.35-3.46-2.35z" transform="translate(.01)"/><path class="ancls-1" d="M25.12 25.09L19 17.47a17.59 17.59 0 0 0 2.51-2 15.84 15.84 0 0 0 3.68-7.07C26.74.77 18.43-3 13.13 2.89a14.77 14.77 0 0 0-3.81 10 5.59 5.59 0 0 1 2.68-1 13 13 0 0 1 3.14-7.43c3.45-3.84 8.35-1.51 7.34 3.48a13.46 13.46 0 0 1-3.07 5.86c-1.42 1.61-3.09 2.79-4.53 2.92a2.42 2.42 0 0 1-2.14-.89A2.17 2.17 0 0 0 11 17.89a5 5 0 0 0 3.42 1.48 5.22 5.22 0 0 0 1.06-.07 2.84 2.84 0 1 1-.11-3.3A5.3 5.3 0 0 0 17 14.82c-2.47-2.89-6.65-2-9 1.09l-7 9.17a5.1 5.1 0 0 0-1 2.81v27a.91.91 0 0 0 .81 1H25a.94.94 0 0 0 1-1v-27a4.89 4.89 0 0 0-.88-2.8zM18 39.17a10.39 10.39 0 0 1-5.81 1.72h-.3v2h6v3h-6v2H8v-2H6v-3h2v-2H6v-3h2v-7.54l.91-.17c.35-.06.73-.11 1.12-.14l1.19-.09h1.14a15.72 15.72 0 0 1 3.1.28 7.49 7.49 0 0 1 2.41.9 4.31 4.31 0 0 1 1.57 1.61 5 5 0 0 1 .56 2.43 4.5 4.5 0 0 1-2 4z" transform="translate(.01)"/></symbol><symbol id="gear" viewBox="0 0 48 48" xmlns="http://www.w3.org/2000/svg"><defs><style>.aocls-1{fill:#fbca0b;fill-rule:evenodd}</style></defs><title>gear</title><path class="aocls-1" d="M33.16 564.22a15.2 15.2 0 0 0 0-4.47L36 558a18.34 18.34 0 0 0-2.45-5.89l-3.26.76a15.2 15.2 0 0 0-3.16-3.15l.76-3.26A18.33 18.33 0 0 0 22 544l-1.76 2.84a15.2 15.2 0 0 0-4.47 0L14 544a18.34 18.34 0 0 0-5.89 2.45l.76 3.26a15.21 15.21 0 0 0-3.16 3.17l-3.26-.76A18.32 18.32 0 0 0 0 558l2.84 1.76a15.17 15.17 0 0 0 0 4.47L0 566a18.34 18.34 0 0 0 2.45 5.89l3.26-.76a15.21 15.21 0 0 0 3.17 3.16l-.76 3.26A18.33 18.33 0 0 0 14 580l1.76-2.84a15.19 15.19 0 0 0 4.47 0L22 580a18.35 18.35 0 0 0 5.89-2.45l-.76-3.26a15.22 15.22 0 0 0 3.16-3.16l3.26.76A18.33 18.33 0 0 0 36 566zm-12.47 4.24a7 7 0 1 1 3.78-9.15 7 7 0 0 1-3.78 9.15zM47.8 544a9.93 9.93 0 0 0 .08-3.46l-1.78-.34a8.25 8.25 0 0 0-.87-2.26l1.09-1.45a10 10 0 0 0-2.38-2.49l-1.5 1a8.25 8.25 0 0 0-2.22-1l-.22-1.8a9.92 9.92 0 0 0-3.46-.08l-.34 1.78a8.25 8.25 0 0 0-2.26.87l-1.45-1.09a9.94 9.94 0 0 0-2.49 2.38l1 1.5a8.24 8.24 0 0 0-1 2.22l-1.8.25a10 10 0 0 0-.08 3.46l1.78.34a8.24 8.24 0 0 0 .87 2.26l-1.09 1.45a10 10 0 0 0 2.39 2.5l1.5-1a8.27 8.27 0 0 0 2.22 1l.21 1.76a9.92 9.92 0 0 0 3.46.08l.34-1.78a8.26 8.26 0 0 0 2.26-.87l1.45 1.09a10 10 0 0 0 2.49-2.38l-1-1.5a8.24 8.24 0 0 0 1-2.22zm-7 .93a4 4 0 1 1 .14-5.66 4 4 0 0 1-.18 5.63z" transform="translate(0 -532)"/></symbol><symbol id="geometry" viewBox="0 0 38 48" xmlns="http://www.w3.org/2000/svg"><defs><style>.apcls-1{fill:#fbca0b;fill-rule:evenodd}</style></defs><title>price-geometry</title><path class="apcls-1" d="M0 16h8v-5h3v14H8v-5H0v-4z"/><path class="apcls-1" d="M30 611v3l8-5.5-8-5.5v3H13v-3l-8 5.5 8 5.5v-3h17zM29.93 568.32a2.83 2.83 0 0 0-2-1.6c-2.95-1-9.61-.92-12.63-.09-1.08.3-2.34 1-2.34 2.19v29.44a2.77 2.77 0 0 0 .46 2.13c1.35 1.5 6.21 1.61 8.07 1.61s5.87-.15 7.49-1.19a1.89 1.89 0 0 0 1-1.62v-30.36a1.94 1.94 0 0 0-.05-.51zM20 601h-1.18c-.77-2.52-1.6-6.11-3.82-7v-.89c2.09.7 3.14 3.08 4 5.45v-2.31c-.77-2.52-1.77-5.54-4-6.39V589c2.09.7 3.14 3.08 4 5.45v-2.31c-.77-2.52-1.77-5.54-4-6.39v-.89c2.09.7 3.14 3.08 4 5.45V588c-.77-2.52-1.77-5.54-4-6.39v-.89c2.09.7 3.14 3.08 4 5.45v-2.31c-.77-2.52-1.77-5.54-4-6.39v-.89c2.09.7 3.14 3.08 4 5.45v-2.31c-.77-2.52-1.77-5.54-4-6.39v-.89c2.09.7 3.14 3.08 4 5.45v-2.31c-.77-2.52-1.77-5.54-4-6.39v-.81c2 .79 3.17 3.09 4 5.36v-2.31a24 24 0 0 0-2-4.43h.89a25 25 0 0 1 1.11 2.61V567h1v34zm2 0h-1v-34h1v34zm6-31.81c-2.23.84-3.23 3.87-4 6.39v2.31c.86-2.37 1.91-4.76 4-5.45v.89c-2.23.84-3.23 3.87-4 6.39V582c.86-2.37 1.91-4.76 4-5.45v.89c-2.23.84-3.23 3.87-4 6.39v2.31c.86-2.37 1.91-4.76 4-5.45v.89c-2.23.84-3.23 3.87-4 6.39v2.31c.86-2.37 1.91-4.76 4-5.45v.89c-2.23.84-3.23 3.87-4 6.39v2.31c.86-2.37 1.91-4.76 4-5.45v.89c-2.23.84-3.23 3.87-4 6.39v2.31c.86-2.37 1.91-4.76 4-5.45v.89c-2.23.84-3.25 4.43-4 7h-1v-34h1v2.61a23.74 23.74 0 0 1 .92-2.61h.69a22.23 22.23 0 0 0-1.61 4.44v2.31c.83-2.29 2-4.59 4-5.37a6.59 6.59 0 0 1 0 .81z" transform="translate(0 -566)"/></symbol><symbol id="guarantee" viewBox="0 0 50 56" xmlns="http://www.w3.org/2000/svg"><defs><style>.aqcls-1{fill:#fbca0b;fill-rule:evenodd}</style></defs><title>guarantee</title><path class="aqcls-1" d="M12 581h9v3h-9v-3zm0-7h20v3H12v-3zm9 22v-3H3v-40h4v-3H2a1.78 1.78 0 0 0-2 2v42a1.78 1.78 0 0 0 2 2h19zm15-43v24h3v-25a1.78 1.78 0 0 0-2-2h-5v3h4a1 1 0 0 1 0 .29V553zM7 581h3v3H7v-3zm0-7h3v3H7v-3zm0-7h3v3H7v-3zm0-7h3v3H7v-3zm5 7h20v3H12v-3zm.06-7H32v3H12.06v-3zM16 548h13a1.16 1.16 0 0 1 1 1l1 6a1 1 0 0 1-1 1H9a1 1 0 0 1-1-1l1-6a1.16 1.16 0 0 1 1-1h6zm4 0a2 2 0 1 1-2 2 2 2 0 0 1 2-2zm6 34v17h17v-7.33l3-2.67v11a1.7 1.7 0 0 1-2 2H25.38a2.47 2.47 0 0 1-2.38-2.7V581a1.74 1.74 0 0 1 2-2h19l-3 3H26zm24 1v-7l-15 13.87-7-5.87v7l7 6zm-6-4" transform="translate(0 -546)"/><path class="aqcls-1" d="M20 546a4 4 0 1 0 4 4 4 4 0 0 0-4-4zm0 6a2 2 0 1 1 2-2 2 2 0 0 1-2 2z" transform="translate(0 -546)"/></symbol><symbol id="location-active" viewBox="0 0 38 56" xmlns="http://www.w3.org/2000/svg"><defs><style>.arcls-1{fill:#ffcc05}</style></defs><title>location-active</title><path class="arcls-1" d="M19 554a17.22 17.22 0 0 1 17 16.67c0 13.07-12.62 29.12-17 34.29-4.38-5.17-17-21.2-17-34.25A17.23 17.23 0 0 1 19 554m0-2a19.26 19.26 0 0 0-19 18.67C0 587.39 19 608 19 608s19-20.62 19-37.33A19.26 19.26 0 0 0 19 552z" transform="translate(0 -552)"/><path class="arcls-1" d="M30.87 565.62a10.4 10.4 0 0 0-2.73-3.9 12.1 12.1 0 0 0-4-2.6A16.52 16.52 0 0 0 19 558h-.9a13.43 13.43 0 0 0-5.32 1.59 11.39 11.39 0 0 0-4.9 4.56 12.22 12.22 0 0 0-1.42 3.38 15.49 15.49 0 0 0-.47 3.9 11.1 11.1 0 0 0 .47 3.12q.16.53.38 1.08a13.45 13.45 0 0 0 2.6 4.09 11.7 11.7 0 0 0 4.24 3.13 14.39 14.39 0 0 0 4.47 1.08c.51 0 1 .07 1.55.07a12.26 12.26 0 0 0 6.23-1.72A12.92 12.92 0 0 0 32 571.14v-.57a14.07 14.07 0 0 0-1.13-4.95zm-4 11.65l-6.54-1.42-2.26 2.37-2.37 2.45-.61-6.61-6-3.07 6-2.7.93-6.62 2 2.21 2.48 2.72 6.54-1.15-3.32 5.87z" transform="translate(0 -552)"/></symbol><symbol id="location-passive" viewBox="0 0 38 56" xmlns="http://www.w3.org/2000/svg"><defs><style>.ascls-1{fill:#4e5a60}</style></defs><title>location-passive</title><path class="ascls-1" d="M19 554a17.22 17.22 0 0 1 17 16.67c0 13.07-12.62 29.12-17 34.29-4.38-5.17-17-21.2-17-34.25A17.23 17.23 0 0 1 19 554m0-2a19.26 19.26 0 0 0-19 18.67C0 587.39 19 608 19 608s19-20.62 19-37.33A19.26 19.26 0 0 0 19 552z" transform="translate(0 -552)"/><path class="ascls-1" d="M30.87 565.62a10.4 10.4 0 0 0-2.73-3.9 12.1 12.1 0 0 0-4-2.6A16.52 16.52 0 0 0 19 558h-.9a13.43 13.43 0 0 0-5.32 1.59 11.39 11.39 0 0 0-4.9 4.56 12.22 12.22 0 0 0-1.42 3.38 15.49 15.49 0 0 0-.47 3.9 11.1 11.1 0 0 0 .47 3.12q.16.53.38 1.08a13.45 13.45 0 0 0 2.6 4.09 11.7 11.7 0 0 0 4.24 3.13 14.39 14.39 0 0 0 4.47 1.08c.51 0 1 .07 1.55.07a12.26 12.26 0 0 0 6.23-1.72A12.92 12.92 0 0 0 32 571.14v-.57a14.07 14.07 0 0 0-1.13-4.95zm-4 11.65l-6.54-1.42-2.26 2.37-2.37 2.45-.61-6.61-6-3.07 6-2.7.93-6.62 2 2.21 2.48 2.72 6.54-1.15-3.32 5.87z" transform="translate(0 -552)"/></symbol><symbol id="map-nav" viewBox="0 0 30 45" xmlns="http://www.w3.org/2000/svg"><defs><style>.atcls-1{fill:#263238}.atcls-2{fill:#ffcc05}</style></defs><title>map-nav</title><path class="atcls-1" d="M15 0A15.34 15.34 0 0 0 0 15c0 13.44 15 30 15 30s15-16.57 15-30A15.34 15.34 0 0 0 15 0z"/><path class="atcls-2" d="M24.13 10.86a8 8 0 0 0-2.1-3 9.31 9.31 0 0 0-3.11-2A12.71 12.71 0 0 0 15 5h-.69a10.33 10.33 0 0 0-4.09 1.22 8.76 8.76 0 0 0-3.77 3.51 9.4 9.4 0 0 0-1.09 2.6 11.91 11.91 0 0 0-.36 3 8.54 8.54 0 0 0 .36 2.4q.12.41.29.83a10.35 10.35 0 0 0 2 3.15 9 9 0 0 0 3.26 2.41 11.07 11.07 0 0 0 3.44.83h1.19a9.43 9.43 0 0 0 4.79-1.32A9.94 9.94 0 0 0 25 15.11v-.44a10.82 10.82 0 0 0-.87-3.81zm-3 9l-5.07-1.1-1.75 1.84-1.84 1.9-.47-5.12L7.32 15 12 12.91l.72-5.13 1.56 1.71 1.92 2.11 5.07-.89-2.57 4.55z"/></symbol><symbol id="optics" viewBox="0 0 48 34" xmlns="http://www.w3.org/2000/svg"><defs><style>.aucls-1{fill:#fbca0b;fill-rule:evenodd}</style></defs><title>optics</title><path class="aucls-1" d="M27 556.24A51.82 51.82 0 0 1 24 572a18.3 18.3 0 0 1-6 1c-10.21 0-18-7.65-18-17s7.79-17 18-17a30.91 30.91 0 0 1 6 1 51.11 51.11 0 0 1 3 16.24zM45 547H34a3 3 0 0 1-3-3 3 3 0 0 1 3-3h11a3 3 0 0 1 3 3 3 3 0 0 1-3 3zm0 24H34a3 3 0 0 1-3-3 3 3 0 0 1 3-3h11a3 3 0 0 1 3 3 3 3 0 0 1-3 3zm0-12H34a3 3 0 0 1-3-3 3 3 0 0 1 3-3h11a3 3 0 0 1 3 3 3 3 0 0 1-3 3z" transform="translate(0 -539)"/></symbol><symbol id="others" viewBox="0 0 48 32" xmlns="http://www.w3.org/2000/svg"><defs><style>.avcls-1{fill:#fbca0b;fill-rule:evenodd}</style></defs><title>other</title><path class="avcls-1" d="M47.6 547a1.57 1.57 0 0 0-1.6-1h-4l-4-4.83a2.77 2.77 0 0 0-1-.78 139.07 139.07 0 0 0-20.59 0 2.13 2.13 0 0 0-1.43.78L12 545h2.82l1.18-2a3 3 0 0 1 1-1 120.66 120.66 0 0 1 19 0 3 3 0 0 1 1 1l4 5c.14.19.38.64 0 .59-7.66-.39-14.27-.59-20-.59h-2a13.15 13.15 0 0 1 5 10 15 15 0 0 1-1.23 6H39v1a1 1 0 0 0 1 1h6a1 1 0 0 0 1-1v-11.5c0-1.33 0-2.52-1-3.52l-1-.67 2-.32a1 1 0 0 0 1-1.11zm-2.6 6a2.33 2.33 0 0 1-2 2h-5a.87.87 0 0 1-1-1v-1a1 1 0 0 1 1-1 44 44 0 0 1 5-1h1a1.06 1.06 0 0 1 1 1v1z" transform="translate(0 -540)"/><path class="avcls-1" d="M23.42 567.14l-3.1-3.28a10.78 10.78 0 1 0-4.65 4.14l3.14 3.32a2.22 2.22 0 0 0 3.08.12l1.41-1.28a2.11 2.11 0 0 0 .12-3.02zM3 558a8 8 0 1 1 8 8 8 8 0 0 1-8-8z" transform="translate(0 -540)"/></symbol><symbol id="price-tyres" viewBox="0 0 56 44" xmlns="http://www.w3.org/2000/svg"><defs><style>.awcls-1{fill:#fbca0b;fill-rule:evenodd}</style></defs><title>price-tyres</title><path class="awcls-1" d="M22.16 568.66a21.3 21.3 0 0 1 4.13.54 1 1 0 0 0 1.4.38 21.17 21.17 0 0 1 3.85 1.61 1 1 0 0 0 1.25.73 21.54 21.54 0 0 1 3.31 2.57 1 1 0 0 0 1 1 21.76 21.76 0 0 1 2.54 3.34 1 1 0 0 0 .72 1.26A21.7 21.7 0 0 1 42 584a1 1 0 0 0 .37 1.41 21.91 21.91 0 0 1 .54 4.18 1 1 0 0 0 0 1.45 22 22 0 0 1-.54 4.18 1 1 0 0 0-.37 1.41 21.69 21.69 0 0 1-1.6 3.89.9.9 0 0 0-.7.58 43.17 43.17 0 0 1-4.11-3 16.27 16.27 0 0 0-14.12-24 16.23 16.23 0 0 0 0 32.47 16 16 0 0 0 12.66-6.25 5.16 5.16 0 0 1-.41-.35c-.68-.69.6-2.18 1.38-1.41.39.38 3 2.29 3.48 2.64 6.07 4.5 13.3.26 11.28-6.06-1.53-4.81-2.91-4-2.23-10.13h-2v-2.6a7.43 7.43 0 1 1 5.91 0V585h-1.96c-.78 5.62.72 5.13 2.12 9.53 2.42 7.59-5.93 13.54-13.22 9q-.64.85-1.36 1.63a1 1 0 0 0-1 1 21.58 21.58 0 0 1-3.31 2.57 1 1 0 0 0-1.25.73 21.21 21.21 0 0 1-3.85 1.61 1 1 0 0 0-1.4.38 21.23 21.23 0 0 1-4.13.54 1 1 0 0 0-1.44 0 21.27 21.27 0 0 1-4.13-.54 1 1 0 0 0-1.4-.38 21.21 21.21 0 0 1-3.85-1.61 1 1 0 0 0-1.25-.73 21.55 21.55 0 0 1-3.31-2.57 1 1 0 0 0-1-1 21.75 21.75 0 0 1-2.54-3.34 1 1 0 0 0-.72-1.26 21.69 21.69 0 0 1-1.6-3.89 1 1 0 0 0-.37-1.41 21.9 21.9 0 0 1-.57-4.2 1 1 0 0 0 0-1.45 22 22 0 0 1 .54-4.18A1 1 0 0 0 .91 584a21.65 21.65 0 0 1 1.6-3.89 1 1 0 0 0 .72-1.26 21.75 21.75 0 0 1 2.54-3.34 1 1 0 0 0 1-1 21.53 21.53 0 0 1 3.31-2.57 1 1 0 0 0 1.25-.73 21.23 21.23 0 0 1 3.85-1.61 1 1 0 0 0 1.4-.38 21.27 21.27 0 0 1 4.13-.54 1 1 0 0 0 1.44 0zm26.41 1.18a5.67 5.67 0 1 0 5.61 5.67 5.64 5.64 0 0 0-5.61-5.67zm0 1a4.6 4.6 0 0 0-4.57 4.67 4.65 4.65 0 0 0 .51 2.12 5 5 0 0 1-.09-.95 4.38 4.38 0 0 1 4.07-4.55 3.31 3.31 0 0 1 2 .6l1.43-.38a4.54 4.54 0 0 0-3.34-1.46zm1.08 2.56a2.29 2.29 0 0 0-1.77-.17 2.35 2.35 0 0 0-1.53 2.93 2.31 2.31 0 0 0 2.9 1.54 2.34 2.34 0 0 0 1.63-2.32l1.75-2.06-.38-.62-2.6.69zm-.15 1.48a1.09 1.09 0 0 0-1.51-.35 1.12 1.12 0 0 0-.35 1.53 1.09 1.09 0 0 0 1.51.35 1.12 1.12 0 0 0 .35-1.53zm-31 13.39a.81.81 0 0 0-.77.57.82.82 0 0 0 0 .49.81.81 0 0 0 1 .53.81.81 0 0 0-.24-1.59zm.87 3.86a.81.81 0 0 0-.77.57.82.82 0 0 0 0 .49.8.8 0 0 0 1 .53.81.81 0 0 0-.25-1.59zm4.18 0a.81.81 0 0 0-.77.57.82.82 0 0 0 .52 1 .78.78 0 0 0 .49 0 .81.81 0 0 0-.24-1.59zm.87-3.86a.81.81 0 0 0-.77.57.82.82 0 0 0 .52 1 .81.81 0 1 0 .24-1.59zm-3-2.46a.81.81 0 1 0 .77.57.81.81 0 0 0-.77-.57zm0 2.95a1.53 1.53 0 1 0 1.58 1.57 1.52 1.52 0 0 0-1.51-1.53zm12.5-1.13a.76.76 0 0 0-.91-.21c-1.81.7-3.58 1.73-5.41 2.65a4.62 4.62 0 0 0-1.31.74 1.28 1.28 0 0 0-.33 1 4.65 4.65 0 0 0 .63 1.38c.94 1.83 1.78 3.71 2.83 5.35a.76.76 0 0 0 .86.37c3.35-1.14 5.69-8.4 3.63-11.3zm-10.81-10.17a.77.77 0 0 0-.48.81c.1 2 .52 4 .82 6a4.7 4.7 0 0 0 .29 1.49 1.25 1.25 0 0 0 .86.63 4.56 4.56 0 0 0 1.49-.18c2-.34 4-.56 5.91-1.07a.77.77 0 0 0 .62-.71c0-3.58-6.14-8.06-9.52-7zm-3.32 0c-3.4-1.08-9.48 3.39-9.52 7a.77.77 0 0 0 .62.71c1.87.51 3.9.73 5.91 1.07a4.57 4.57 0 0 0 1.49.18 1.25 1.25 0 0 0 .86-.63 4.78 4.78 0 0 0 .29-1.49c.3-2 .72-4.06.82-6a.77.77 0 0 0-.48-.81zM9 587.67c-2.06 2.91.29 10.17 3.63 11.3a.76.76 0 0 0 .86-.37c1.06-1.64 1.89-3.52 2.83-5.35a4.65 4.65 0 0 0 .63-1.38 1.27 1.27 0 0 0-.33-1 4.61 4.61 0 0 0-1.31-.74c-1.83-.92-3.6-1.95-5.41-2.65a.76.76 0 0 0-.91.21H9zm6.61 14c2.11 2.87 9.66 2.87 11.76 0a.77.77 0 0 0-.09-.94c-1.22-1.52-2.73-2.91-4.16-4.38a4.64 4.64 0 0 0-1.1-1 1.25 1.25 0 0 0-1.06 0 4.7 4.7 0 0 0-1.1 1c-1.43 1.47-2.95 2.85-4.16 4.38a.78.78 0 0 0-.09.94zm5.88-26.06a14.72 14.72 0 0 0 0 29.44 14.72 14.72 0 0 0-.05-29.44z" transform="translate(0 -568)"/></symbol><symbol id="recreation" viewBox="0 0 52 56" xmlns="http://www.w3.org/2000/svg"><defs><style>.axcls-1,.axcls-2{fill:#fbca0b}.axcls-1{fill-rule:evenodd}</style></defs><title>recreation</title><path class="axcls-1" d="M22 554.63a8.73 8.73 0 0 1 1.61-5.08 19.6 19.6 0 0 1 3.06-3.18.87.87 0 0 1 1.1-.24.84.84 0 0 1 .1 1.13c-1.11 2.69-2.33 4.9.13 7.37 1.32 1.34 3 3.83 3 5.75a7.56 7.56 0 0 1-2.15 5.87c-.7.82-3.14 2.76-4.61 2.76-.49 0-.14-2 .76-2.88 2.57-2.46 2.6-4.19.12-6.71-1.44-1.47-3-2.65-3.12-4.79zM52 580c0 6-8 8.37-12 9a37.1 37.1 0 0 0 3-5c1.94 0 5-.62 5-5 0-1-1.12-2-3-2v-4c3.06 0 7 .88 7 7zm-21 16c7.23-4.38 12-14.72 12-23 0-1.5-.46-2-2-2H5c-1.42 0-2 .46-2 2 .6 8.27 4.66 18.55 12 23h16zM15 558.37a6.24 6.24 0 0 1 1.25-3.76 14.85 14.85 0 0 1 2.38-2.35.7.7 0 0 1 .85-.18.6.6 0 0 1 .08.84c-.86 2-1.81 3.62.1 5.45 1 1 2.33 2.83 2.33 4.25a5.43 5.43 0 0 1-1.66 4.38c-.54.61-2.19 2-3.33 2-.38 0-.36-1.49.33-2.13 2-1.82 2-3.09.09-5-1.12-1.08-2.32-2-2.43-3.54z" transform="translate(0 -546)"/><path class="axcls-2" d="M1 52h43a1 1 0 0 1 1 1 3 3 0 0 1-3 3H3a3 3 0 0 1-3-3 1 1 0 0 1 1-1z"/></symbol><symbol id="service" viewBox="0 0 48 48" xmlns="http://www.w3.org/2000/svg"><defs><style>.aycls-1{fill:#fbca0b;fill-rule:evenodd}</style></defs><title>price-tech-service</title><path class="aycls-1" d="M5 566h38a5 5 0 0 1 5 5v38a5 5 0 0 1-5 5H5a5 5 0 0 1-5-5v-38a5 5 0 0 1 5-5zm-1 3a1 1 0 0 0-1 1v40a1 1 0 0 0 1 1h40a1 1 0 0 0 1-1v-40a1 1 0 0 0-1-1H4zm5 40h9.05c1.5-2.5 3.19-6.22 4.87-8.55 2.66-3.67 5.22-5.74 7.72-6.67a10.07 10.07 0 0 0 6.57-5c.74-1.34 2.55-6.1 1.44-7.49-.32-.4-.66-.16-1 .19l-4.51 4.77c-1.29 1.19-3.52.5-5-.64-1.72-1.32-3.43-4.21-2-6.25a13.47 13.47 0 0 1 2.17-2.17l3-2.78c.7-.7.17-1.11-.38-1.27-1.25-.38-4.38.47-6.7 1.33s-4.38 1.94-4.91 4.57c-.44 2.16 0 4.78 0 7 0 3.33-1.36 7.28-4.29 12z" transform="translate(0 -566)"/></symbol><symbol id="starter" viewBox="0 0 48 48" xmlns="http://www.w3.org/2000/svg"><defs><style>.azcls-1{fill:#fbca0b;fill-rule:evenodd}</style></defs><title>starter</title><path class="azcls-1" d="M13 535v3l20 8 2-2zm28 26h-4l-6 6v4zm-34 0l2-3-3-13H3z" transform="translate(0 -532)"/><path class="azcls-1" d="M42 544.25a8 8 0 1 0 5.75 9.75 8 8 0 0 0-5.75-9.75zm0 8.24a2 2 0 1 1-1.44-2.43 2 2 0 0 1 1.38 2.43zM7.48 532.19a6 6 0 1 0 4.33 7.29 6 6 0 0 0-4.33-7.29zm.46 6.31a2 2 0 1 1-1.45-2.43 2 2 0 0 1 1.45 2.42zM18 559a9 9 0 1 0 9 9 9 9 0 0 0-9-9zm.61 2.43a1 1 0 1 1 .72 1.22 1 1 0 0 1-.72-1.22zm-6.49 9.3a1 1 0 1 1 .69-1.23 1 1 0 0 1-.69 1.23zm2-6.59a1 1 0 1 1 0-1.41 1 1 0 0 1 .02 1.41zm3.25 10.43a1 1 0 1 1-.72-1.22 1 1 0 0 1 .74 1.22zm3.51-5.83a3 3 0 1 1-2.17-3.65 3 3 0 0 1 2.2 3.65zm2.39 4.51a1 1 0 1 1 0-1.41 1 1 0 0 1 .02 1.41zm1.13-6.06a1 1 0 1 1 .69-1.23 1 1 0 0 1-.67 1.23z" transform="translate(0 -532)"/><path class="azcls-1" d="M21 556.37A12 12 0 1 0 29.63 571 12 12 0 0 0 21 556.37zM18 578a10 10 0 1 1 10-10 10 10 0 0 1-10 10z" transform="translate(0 -532)"/></symbol><symbol id="steering-wheel" viewBox="0 0 48 48" xmlns="http://www.w3.org/2000/svg"><defs><style>.bacls-1{fill:#fbca0b;fill-rule:evenodd}</style></defs><title>steering-wheel</title><path class="bacls-1" d="M295.24 571.66a6.26 6.26 0 0 0-8.49 0 6.08 6.08 0 0 0 1.42 9.64 6 6 0 0 0 7.06-1.07 6.1 6.1 0 0 0 .01-8.57zm-2.92 7A3 3 0 1 1 294 576a3 3 0 0 1-1.68 2.7z" transform="translate(-267 -552)"/><path class="bacls-1" d="M308 558.63a25 25 0 0 0-33.94 0 24.4 24.4 0 0 0 0 34.27 23.83 23.83 0 0 0 33.94 0 24.4 24.4 0 0 0 0-34.27zm-30.55 30.87a19.59 19.59 0 0 1-5.45-10.17c-.26-1.07.35-1.36 1.14-1.33a22.92 22.92 0 0 1 4.75.23c5.46 1 7.41 3.7 8.37 9.82.35 2.22.57 5.08.76 7a19.48 19.48 0 0 1-9.57-5.55zm9.79-6.44a8.12 8.12 0 0 1-2.57-12.06h-10.81c-1 .05-1.31-.33-1-1.3a19.38 19.38 0 0 1 4.64-7.57c3.44-3.53 8.5-5.13 13.5-5.13s10.06 1.6 13.55 5.13a19.38 19.38 0 0 1 4.64 7.57c.26 1-.09 1.35-1 1.3h-10.86a8.1 8.1 0 0 1-2.57 12.06 8 8 0 0 1-7.52 0zm17.31 6.44A19.48 19.48 0 0 1 295 595c.19-1.88.41-4.73.76-7 1-6.12 2.92-8.78 8.37-9.82a22.92 22.92 0 0 1 4.75-.23c.8 0 1.4.26 1.14 1.33a19.59 19.59 0 0 1-5.47 10.22z" transform="translate(-267 -552)"/></symbol><symbol id="tyres" viewBox="0 0 56 44" xmlns="http://www.w3.org/2000/svg"><defs><style>.bbcls-1{fill:#fbca0b;fill-rule:evenodd}</style></defs><title>price-tyres</title><path class="bbcls-1" d="M22.16 568.66a21.3 21.3 0 0 1 4.13.54 1 1 0 0 0 1.4.38 21.17 21.17 0 0 1 3.85 1.61 1 1 0 0 0 1.25.73 21.54 21.54 0 0 1 3.31 2.57 1 1 0 0 0 1 1 21.76 21.76 0 0 1 2.54 3.34 1 1 0 0 0 .72 1.26A21.7 21.7 0 0 1 42 584a1 1 0 0 0 .37 1.41 21.91 21.91 0 0 1 .54 4.18 1 1 0 0 0 0 1.45 22 22 0 0 1-.54 4.18 1 1 0 0 0-.37 1.41 21.69 21.69 0 0 1-1.6 3.89.9.9 0 0 0-.7.58 43.17 43.17 0 0 1-4.11-3 16.27 16.27 0 0 0-14.12-24 16.23 16.23 0 0 0 0 32.47 16 16 0 0 0 12.66-6.25 5.16 5.16 0 0 1-.41-.35c-.68-.69.6-2.18 1.38-1.41.39.38 3 2.29 3.48 2.64 6.07 4.5 13.3.26 11.28-6.06-1.53-4.81-2.91-4-2.23-10.13h-2v-2.6a7.43 7.43 0 1 1 5.91 0V585h-1.96c-.78 5.62.72 5.13 2.12 9.53 2.42 7.59-5.93 13.54-13.22 9q-.64.85-1.36 1.63a1 1 0 0 0-1 1 21.58 21.58 0 0 1-3.31 2.57 1 1 0 0 0-1.25.73 21.21 21.21 0 0 1-3.85 1.61 1 1 0 0 0-1.4.38 21.23 21.23 0 0 1-4.13.54 1 1 0 0 0-1.44 0 21.27 21.27 0 0 1-4.13-.54 1 1 0 0 0-1.4-.38 21.21 21.21 0 0 1-3.85-1.61 1 1 0 0 0-1.25-.73 21.55 21.55 0 0 1-3.31-2.57 1 1 0 0 0-1-1 21.75 21.75 0 0 1-2.54-3.34 1 1 0 0 0-.72-1.26 21.69 21.69 0 0 1-1.6-3.89 1 1 0 0 0-.37-1.41 21.9 21.9 0 0 1-.57-4.2 1 1 0 0 0 0-1.45 22 22 0 0 1 .54-4.18A1 1 0 0 0 .91 584a21.65 21.65 0 0 1 1.6-3.89 1 1 0 0 0 .72-1.26 21.75 21.75 0 0 1 2.54-3.34 1 1 0 0 0 1-1 21.53 21.53 0 0 1 3.31-2.57 1 1 0 0 0 1.25-.73 21.23 21.23 0 0 1 3.85-1.61 1 1 0 0 0 1.4-.38 21.27 21.27 0 0 1 4.13-.54 1 1 0 0 0 1.44 0zm26.41 1.18a5.67 5.67 0 1 0 5.61 5.67 5.64 5.64 0 0 0-5.61-5.67zm0 1a4.6 4.6 0 0 0-4.57 4.67 4.65 4.65 0 0 0 .51 2.12 5 5 0 0 1-.09-.95 4.38 4.38 0 0 1 4.07-4.55 3.31 3.31 0 0 1 2 .6l1.43-.38a4.54 4.54 0 0 0-3.34-1.46zm1.08 2.56a2.29 2.29 0 0 0-1.77-.17 2.35 2.35 0 0 0-1.53 2.93 2.31 2.31 0 0 0 2.9 1.54 2.34 2.34 0 0 0 1.63-2.32l1.75-2.06-.38-.62-2.6.69zm-.15 1.48a1.09 1.09 0 0 0-1.51-.35 1.12 1.12 0 0 0-.35 1.53 1.09 1.09 0 0 0 1.51.35 1.12 1.12 0 0 0 .35-1.53zm-31 13.39a.81.81 0 0 0-.77.57.82.82 0 0 0 0 .49.81.81 0 0 0 1 .53.81.81 0 0 0-.24-1.59zm.87 3.86a.81.81 0 0 0-.77.57.82.82 0 0 0 0 .49.8.8 0 0 0 1 .53.81.81 0 0 0-.25-1.59zm4.18 0a.81.81 0 0 0-.77.57.82.82 0 0 0 .52 1 .78.78 0 0 0 .49 0 .81.81 0 0 0-.24-1.59zm.87-3.86a.81.81 0 0 0-.77.57.82.82 0 0 0 .52 1 .81.81 0 1 0 .24-1.59zm-3-2.46a.81.81 0 1 0 .77.57.81.81 0 0 0-.77-.57zm0 2.95a1.53 1.53 0 1 0 1.58 1.57 1.52 1.52 0 0 0-1.51-1.53zm12.5-1.13a.76.76 0 0 0-.91-.21c-1.81.7-3.58 1.73-5.41 2.65a4.62 4.62 0 0 0-1.31.74 1.28 1.28 0 0 0-.33 1 4.65 4.65 0 0 0 .63 1.38c.94 1.83 1.78 3.71 2.83 5.35a.76.76 0 0 0 .86.37c3.35-1.14 5.69-8.4 3.63-11.3zm-10.81-10.17a.77.77 0 0 0-.48.81c.1 2 .52 4 .82 6a4.7 4.7 0 0 0 .29 1.49 1.25 1.25 0 0 0 .86.63 4.56 4.56 0 0 0 1.49-.18c2-.34 4-.56 5.91-1.07a.77.77 0 0 0 .62-.71c0-3.58-6.14-8.06-9.52-7zm-3.32 0c-3.4-1.08-9.48 3.39-9.52 7a.77.77 0 0 0 .62.71c1.87.51 3.9.73 5.91 1.07a4.57 4.57 0 0 0 1.49.18 1.25 1.25 0 0 0 .86-.63 4.78 4.78 0 0 0 .29-1.49c.3-2 .72-4.06.82-6a.77.77 0 0 0-.48-.81zM9 587.67c-2.06 2.91.29 10.17 3.63 11.3a.76.76 0 0 0 .86-.37c1.06-1.64 1.89-3.52 2.83-5.35a4.65 4.65 0 0 0 .63-1.38 1.27 1.27 0 0 0-.33-1 4.61 4.61 0 0 0-1.31-.74c-1.83-.92-3.6-1.95-5.41-2.65a.76.76 0 0 0-.91.21H9zm6.61 14c2.11 2.87 9.66 2.87 11.76 0a.77.77 0 0 0-.09-.94c-1.22-1.52-2.73-2.91-4.16-4.38a4.64 4.64 0 0 0-1.1-1 1.25 1.25 0 0 0-1.06 0 4.7 4.7 0 0 0-1.1 1c-1.43 1.47-2.95 2.85-4.16 4.38a.78.78 0 0 0-.09.94zm5.88-26.06a14.72 14.72 0 0 0 0 29.44 14.72 14.72 0 0 0-.05-29.44z" transform="translate(0 -568)"/></symbol></svg>